<svg id="Layer_1" data-name="Layer 1" xmlns="http://www.w3.org/2000/svg" width="874" height="216" viewBox="0 0 874 216"><defs><style>.cls-1{fill:#fff;}.cls-2{fill:none;stroke:#000;stroke-linecap:round;stroke-miterlimit:10;stroke-width:5px;}.cls-3{font-size:30px;font-family:Helvetica;}</style></defs><title>Artboard 1</title><rect class="cls-1" y="-1" width="874" height="217"/><path d="M64,69.25a43,43,0,1,1-43,43,43,43,0,0,1,43-43m0-5a48,48,0,1,0,48,48,48,48,0,0,0-48-48Z"/><path d="M214,69.25a43,43,0,1,1-43,43,43,43,0,0,1,43-43m0-5a48,48,0,1,0,48,48,48,48,0,0,0-48-48Z"/><line class="cls-2" x1="64.5" y1="111.75" x2="99.5" y2="16.75"/><line class="cls-2" x1="214.5" y1="111.75" x2="139.5" y2="111.75"/><line class="cls-2" x1="85.5" y1="56.75" x2="139.5" y2="111.75"/><line class="cls-2" x1="189.5" y1="42.75" x2="214.5" y2="111.75"/><line class="cls-2" x1="139.5" y1="111.75" x2="189.5" y2="42.75"/><path class="cls-2" d="M90.79,42.29s27.07,44.33,56.89,56.9"/><line class="cls-2" x1="95.5" y1="15.75" x2="128.5" y2="15.75"/><line class="cls-2" x1="169.5" y1="41.75" x2="197.5" y2="41.75"/><path d="M363,69.25a43,43,0,1,1-43,43,43,43,0,0,1,43-43m0-5a48,48,0,1,0,48,48,48,48,0,0,0-48-48Z"/><path d="M513,69.25a43,43,0,1,1-43,43,43,43,0,0,1,43-43m0-5a48,48,0,1,0,48,48,48,48,0,0,0-48-48Z"/><line class="cls-2" x1="363.5" y1="111.75" x2="395.5" y2="22.5"/><line class="cls-2" x1="513.5" y1="111.75" x2="438.5" y2="111.75"/><line class="cls-2" x1="384.5" y1="56.75" x2="438.5" y2="111.75"/><line class="cls-2" x1="488.5" y1="42.75" x2="513.5" y2="111.75"/><line class="cls-2" x1="438.5" y1="111.75" x2="488.5" y2="42.75"/><line class="cls-2" x1="392.5" y1="22.5" x2="425.5" y2="22.5"/><line class="cls-2" x1="468.5" y1="41.75" x2="496.5" y2="41.75"/><line class="cls-2" x1="384.5" y1="54.5" x2="477.5" y2="54.5"/><path d="M662,69.25a43,43,0,1,1-43,43,43,43,0,0,1,43-43m0-5a48,48,0,1,0,48,48,48,48,0,0,0-48-48Z"/><path d="M812,69.25a43,43,0,1,1-43,43,43,43,0,0,1,43-43m0-5a48,48,0,1,0,48,48,48,48,0,0,0-48-48Z"/><line class="cls-2" x1="662.5" y1="111.75" x2="697.5" y2="16.75"/><line class="cls-2" x1="812.5" y1="111.75" x2="717.5" y2="112.5"/><line class="cls-2" x1="787.5" y1="42.75" x2="812.5" y2="111.75"/><line class="cls-2" x1="737.5" y1="111.75" x2="787.5" y2="42.75"/><line class="cls-2" x1="693.5" y1="15.75" x2="726.5" y2="15.75"/><line class="cls-2" x1="767.5" y1="41.75" x2="795.5" y2="41.75"/><path class="cls-2" d="M681.5,61.5s36,7,36,51"/><text class="cls-3" transform="translate(95.23 204.01)">DAME</text><text class="cls-3" transform="translate(381.23 204.01)">HERRE</text><text class="cls-3" transform="translate(679.23 204.01)">UNISEX</text></svg>
