<svg id="Layer_1" data-name="Layer 1" xmlns="http://www.w3.org/2000/svg" width="973" height="338" viewBox="0 0 973 338"><defs><style>.cls-1{fill:#eaeaea;}.cls-2{fill:#424242;}.cls-3{fill:#bcbcbc;}.cls-4{fill:#727272;}.cls-5{fill:#ededed;}.cls-10,.cls-6,.cls-7,.cls-9{fill:none;}.cls-6,.cls-7,.cls-8,.cls-9{stroke:#000;}.cls-6,.cls-7,.cls-9{stroke-linecap:round;}.cls-10,.cls-6,.cls-7,.cls-8,.cls-9{stroke-miterlimit:10;}.cls-6,.cls-8{stroke-width:11px;}.cls-7{stroke-width:7px;}.cls-9{stroke-width:17px;}.cls-10{stroke:#fff;stroke-width:2px;}.cls-11{font-size:40px;font-family:Helvetica-Bold, Helvetica;font-weight:700;}.cls-11,.cls-15{fill:#34ff00;}.cls-12{fill:#000;}.cls-13,.cls-14,.cls-16{fill:#fff;}.cls-13,.cls-14{font-size:20px;font-family:Helvetica-Light, Helvetica;font-weight:300;}</style></defs><title>cykelgrafik</title><polygon class="cls-1" points="271 223 357 238 357 152 325.26 156.17 298.97 174.83 271 223"/><polygon class="cls-2" points="292.19 291 273.53 256.24 271 223 357 238 292.19 291"/><polygon class="cls-3" points="329.5 317.29 292 291 357 238 329.5 317.29"/><polygon class="cls-4" points="357 152 382.08 154.48 424.48 180.77 440.59 218.08 439.74 263.87 425.32 293.55 405.82 310.51 357 324 329.5 317.29 357 238 357 152"/><circle class="cls-5" cx="655" cy="239" r="86"/><path class="cls-3" d="M652.5,237.5v-86s38,4.2,43.52,11.1,21.29,7.91,26.88,24.4,16.36,23.78,14.48,37.64-2.89,39.29-2.89,39.29l-8.28,19-12.4,16.13L701,312"/><circle class="cls-6" cx="357.5" cy="237.5" r="86"/><circle class="cls-6" cx="652.5" cy="237.5" r="86"/><line class="cls-6" x1="414.5" y1="166.5" x2="447.5" y2="124.5"/><path class="cls-6" d="M626.5,155.5l-23-81s-9-17,4-21,18-22,11-28-46-8-46-8"/><path class="cls-6" d="M443.5,237.5l84,1s9.8-95.33,88.9-116.66"/><line class="cls-6" x1="488.5" y1="236.5" x2="431.5" y2="77.5"/><circle class="cls-7" cx="440" cy="103" r="6.5"/><circle class="cls-7" cx="606" cy="83" r="6.5"/><path class="cls-8" d="M410.89,63.5,453,67c18,.52,16.28,3.54,12.68,4.52-11.35,3.08-47.59,6.19-53.44,4a10.72,10.72,0,0,1-6.68-6C404.54,67.24,407.47,63.37,410.89,63.5Z"/><line class="cls-9" x1="563.5" y1="16.5" x2="595.5" y2="18.5"/><line class="cls-10" x1="705.5" y1="205.5" x2="777.23" y2="142.31"/><text class="cls-11" transform="translate(787.82 115.52)">40%<tspan class="cls-12" x="80.06" y="0"> </tspan><tspan class="cls-13" x="91.17" y="0">ved ikke </tspan><tspan class="cls-14"><tspan x="0" y="24">at cykler med lav </tspan><tspan x="0" y="48">indstilling også er </tspan><tspan x="0" y="72">beregnet til mænd</tspan></tspan></text><line class="cls-10" x1="219" y1="86" x2="315" y2="182"/><line class="cls-10" x1="222" y1="160" x2="307" y2="242"/><line class="cls-10" x1="225" y1="235" x2="322" y2="274"/><line class="cls-10" x1="228" y1="295" x2="365.09" y2="305.85"/><text class="cls-11" transform="translate(26.82 224.52)">8%<tspan class="cls-12" x="57.81" y="0"> </tspan><tspan class="cls-13" x="68.93" y="0">Mistede balancen </tspan><tspan class="cls-14"><tspan x="0" y="24">ved påstigning</tspan></tspan></text><text class="cls-11" transform="translate(5.82 152.52)">17%<tspan class="cls-12" x="80.06" y="0"> </tspan><tspan class="cls-13" x="91.17" y="0">Mistede balacen </tspan><tspan class="cls-14"><tspan x="0" y="24">ved afstigning</tspan></tspan></text><path class="cls-15" d="M9.38,60c.8-1.89,2.67-3.89,5.63-6A42.05,42.05,0,0,0,20,50,5.83,5.83,0,0,0,21.73,46a4.51,4.51,0,0,0-1-3,3.48,3.48,0,0,0-2.85-1.2,3.49,3.49,0,0,0-3.46,1.9,9.36,9.36,0,0,0-.62,3.48H8.39A13.52,13.52,0,0,1,9.7,41.31q2.22-4.25,7.91-4.24a10.05,10.05,0,0,1,7.16,2.49,8.62,8.62,0,0,1,2.66,6.59,8.94,8.94,0,0,1-1.88,5.59,18.69,18.69,0,0,1-4.05,3.61l-2.23,1.58c-1.4,1-2.35,1.71-2.87,2.15a6.64,6.64,0,0,0-1.3,1.54H27.47v4.9H8.07A13.26,13.26,0,0,1,9.38,60Z"/><path class="cls-15" d="M47.67,40.82q2.17,3.81,2.18,10.82t-2.18,10.8c-1.45,2.52-4,3.79-7.59,3.79S34,65,32.5,62.44s-2.18-6.13-2.18-10.8S31,43.36,32.5,40.82s4-3.81,7.58-3.81S46.22,38.28,47.67,40.82ZM36.8,59.11a3.24,3.24,0,0,0,3.28,2.59,3.19,3.19,0,0,0,3.26-2.59,27.87,27.87,0,0,0,.77-7.47,27.53,27.53,0,0,0-.77-7.58,3.16,3.16,0,0,0-3.26-2.46,3.2,3.2,0,0,0-3.28,2.46,26.54,26.54,0,0,0-.8,7.58A26.87,26.87,0,0,0,36.8,59.11Z"/><path class="cls-15" d="M64.65,49.74A7.27,7.27,0,1,1,54.36,39.47,7.27,7.27,0,0,1,64.65,49.74Zm-3-2.94a3.11,3.11,0,0,0-4.4-4.39,3.11,3.11,0,0,0,4.4,4.39Zm13.68-9.6h3L62.56,66.27h-3ZM83.62,64a7.25,7.25,0,1,1,2.13-5.13A7,7,0,0,1,83.62,64Zm-2.94-7.33a3.1,3.1,0,1,0,.91,2.2A3,3,0,0,0,80.68,56.63Z"/><path class="cls-16" d="M99.55,65.52V51.12h2.08l4.73,12.7h0L111,51.12h2.06v14.4h-1.36V52.68h0L107,65.52H105.7L101,52.68h0V65.52Z"/><path class="cls-16" d="M116.21,52.9V51.12h1.33V52.9Zm.07,12.62V55.16h1.19V65.52Z"/><path class="cls-16" d="M121.23,62.28a3.06,3.06,0,0,0,1,1.89,3.42,3.42,0,0,0,2.09.55,3.48,3.48,0,0,0,1.14-.16,2.13,2.13,0,0,0,.79-.43,1.7,1.7,0,0,0,.47-.61,1.58,1.58,0,0,0,.16-.72,1.33,1.33,0,0,0-.49-1.13,3.7,3.7,0,0,0-1.23-.58,15.24,15.24,0,0,0-1.6-.36,8,8,0,0,1-1.6-.45,3.18,3.18,0,0,1-1.23-.86,2.35,2.35,0,0,1-.49-1.58,2.71,2.71,0,0,1,1-2.13,3.94,3.94,0,0,1,2.68-.83,4.59,4.59,0,0,1,2.73.75,3.41,3.41,0,0,1,1.27,2.51h-1.22a2.23,2.23,0,0,0-.91-1.69,3.43,3.43,0,0,0-1.88-.49,2.78,2.78,0,0,0-1.75.49,1.58,1.58,0,0,0-.59,1.29,1.24,1.24,0,0,0,.49,1.07,3.76,3.76,0,0,0,1.22.6,16.2,16.2,0,0,0,1.6.41,8,8,0,0,1,1.61.51,3.47,3.47,0,0,1,1.22.89,2.3,2.3,0,0,1,.49,1.56,2.55,2.55,0,0,1-.32,1.31,2.66,2.66,0,0,1-.88,1,3.75,3.75,0,0,1-1.33.57,6.8,6.8,0,0,1-1.68.19,4.62,4.62,0,0,1-1.64-.27,3.49,3.49,0,0,1-1.2-.75,3.4,3.4,0,0,1-.79-1.12,4.1,4.1,0,0,1-.32-1.38Z"/><path class="cls-16" d="M134.17,65.56l-.58.14a2.83,2.83,0,0,1-.8.1,1.93,1.93,0,0,1-1.37-.45,2.2,2.2,0,0,1-.46-1.61V56.16h-1.47v-1H131V52.28h1.19v2.88h1.94v1h-1.94v7.1c0,.26,0,.48,0,.66a1.34,1.34,0,0,0,.12.46.57.57,0,0,0,.31.26,1.61,1.61,0,0,0,.6.08,2.67,2.67,0,0,0,.48,0,3.86,3.86,0,0,0,.49-.1Z"/><path class="cls-16" d="M136.83,60.62a5.87,5.87,0,0,0,.22,1.59,3.8,3.8,0,0,0,.66,1.3,3.1,3.1,0,0,0,1.08.88,3.37,3.37,0,0,0,1.52.33,3.24,3.24,0,0,0,2-.62,3,3,0,0,0,1.13-1.76h1.33a5.59,5.59,0,0,1-.58,1.37,4.17,4.17,0,0,1-.9,1.1,3.62,3.62,0,0,1-1.27.73,5.76,5.76,0,0,1-3.87-.16,3.91,3.91,0,0,1-1.47-1.15,4.81,4.81,0,0,1-.87-1.72,8.06,8.06,0,0,1-.28-2.13,6.8,6.8,0,0,1,.33-2.14,5.87,5.87,0,0,1,.94-1.75,4.51,4.51,0,0,1,1.49-1.18,4.62,4.62,0,0,1,2-.43,4.12,4.12,0,0,1,3.36,1.47,6.45,6.45,0,0,1,1.21,4.27Zm6.76-1a4.5,4.5,0,0,0-.21-1.43,3.32,3.32,0,0,0-.62-1.16,3,3,0,0,0-1-.78,3.33,3.33,0,0,0-1.42-.29,3.18,3.18,0,0,0-1.41.3,3.25,3.25,0,0,0-1,.8,4.22,4.22,0,0,0-.7,1.16,5.85,5.85,0,0,0-.34,1.4Z"/><path class="cls-16" d="M155.21,51.12h1.21v14.4h-1.21V63.7h0a3,3,0,0,1-.67.91,4,4,0,0,1-.89.65,4.41,4.41,0,0,1-1,.4,3.58,3.58,0,0,1-1,.14,4.87,4.87,0,0,1-2.13-.42A4,4,0,0,1,148,64.23a4.88,4.88,0,0,1-.83-1.73,8.59,8.59,0,0,1-.26-2.14,8,8,0,0,1,.28-2.08,5.11,5.11,0,0,1,.86-1.75,4.08,4.08,0,0,1,1.43-1.2,4.44,4.44,0,0,1,2.06-.45,4.83,4.83,0,0,1,2.1.49,3.66,3.66,0,0,1,1.59,1.45Zm0,9.18a5.76,5.76,0,0,0-.24-1.67,4.68,4.68,0,0,0-.68-1.38,3.67,3.67,0,0,0-1.1-.94,3.14,3.14,0,0,0-1.48-.35,3.46,3.46,0,0,0-1.62.37,3.39,3.39,0,0,0-1.12,1,4.67,4.67,0,0,0-.64,1.49,7.22,7.22,0,0,0-.16,1.83,5.06,5.06,0,0,0,.28,1.73,3.48,3.48,0,0,0,.75,1.27,3.19,3.19,0,0,0,1.11.79,3.6,3.6,0,0,0,1.4.27,3.13,3.13,0,0,0,1.5-.34,3,3,0,0,0,1.1-.93,4,4,0,0,0,.67-1.4A6.12,6.12,0,0,0,155.21,60.3Z"/><path class="cls-16" d="M160.17,60.62a5.87,5.87,0,0,0,.22,1.59,4,4,0,0,0,.65,1.3,3.23,3.23,0,0,0,1.09.88,3.37,3.37,0,0,0,1.52.33,3.24,3.24,0,0,0,2-.62,3,3,0,0,0,1.12-1.76h1.34a6,6,0,0,1-.58,1.37,4.17,4.17,0,0,1-.9,1.1,3.71,3.71,0,0,1-1.27.73,5.76,5.76,0,0,1-3.87-.16A3.91,3.91,0,0,1,160,64.23a4.81,4.81,0,0,1-.87-1.72,8.06,8.06,0,0,1-.28-2.13,6.8,6.8,0,0,1,.33-2.14,5.87,5.87,0,0,1,.94-1.75,4.51,4.51,0,0,1,1.49-1.18,4.62,4.62,0,0,1,2-.43A4.12,4.12,0,0,1,167,56.35a6.4,6.4,0,0,1,1.2,4.27Zm6.76-1a4.5,4.5,0,0,0-.21-1.43A3.32,3.32,0,0,0,166.1,57a3,3,0,0,0-1-.78,3.33,3.33,0,0,0-1.42-.29,3.18,3.18,0,0,0-1.41.3,3.25,3.25,0,0,0-1,.8,4.22,4.22,0,0,0-.7,1.16,5.85,5.85,0,0,0-.34,1.4Z"/><path class="cls-16" d="M177.46,65.52h-1.21V51.12h1.21v5.7A3.69,3.69,0,0,1,179,55.37a4.9,4.9,0,0,1,2.11-.49,4.47,4.47,0,0,1,2.06.45,4.18,4.18,0,0,1,1.43,1.2,4.92,4.92,0,0,1,.85,1.75,7.57,7.57,0,0,1,.29,2.08,8.15,8.15,0,0,1-.27,2.14,4.57,4.57,0,0,1-.83,1.73,3.92,3.92,0,0,1-1.45,1.15,4.92,4.92,0,0,1-2.14.42,3.68,3.68,0,0,1-1-.14,4.52,4.52,0,0,1-1-.4,4,4,0,0,1-.89-.65,3.24,3.24,0,0,1-.68-.91h0Zm0-5.22a6.5,6.5,0,0,0,.22,1.75,4.25,4.25,0,0,0,.68,1.4,2.92,2.92,0,0,0,1.1.93,3.13,3.13,0,0,0,1.5.34,3.6,3.6,0,0,0,1.4-.27,3.19,3.19,0,0,0,1.11-.79,3.63,3.63,0,0,0,.75-1.27,5.07,5.07,0,0,0,.27-1.73,6.41,6.41,0,0,0-.16-1.83,4.44,4.44,0,0,0-.63-1.49,3.27,3.27,0,0,0-1.14-1A3.37,3.37,0,0,0,181,56a3.14,3.14,0,0,0-1.48.35,3.55,3.55,0,0,0-1.1.94,4.45,4.45,0,0,0-.68,1.38A5.76,5.76,0,0,0,177.46,60.3Z"/><path class="cls-16" d="M193.09,59.48a8,8,0,0,0,.81-.12,2.63,2.63,0,0,0,.77-.22.6.6,0,0,0,.37-.47,2.77,2.77,0,0,0,.08-.61,2,2,0,0,0-.6-1.51,2.74,2.74,0,0,0-2-.59,5.83,5.83,0,0,0-1.15.11,2.65,2.65,0,0,0-.91.38,2.13,2.13,0,0,0-.64.72,3.35,3.35,0,0,0-.33,1.13h-1.22a3.75,3.75,0,0,1,.42-1.57,3.41,3.41,0,0,1,.93-1.06,4,4,0,0,1,1.32-.6,6.79,6.79,0,0,1,1.59-.19,6.3,6.3,0,0,1,1.47.17,3.66,3.66,0,0,1,1.2.54,2.53,2.53,0,0,1,.8,1,3.5,3.5,0,0,1,.29,1.52v5.64c0,.47.09.77.25.89s.51.1,1-.09v.94l-.41.12a1.63,1.63,0,0,1-.53.08,2.48,2.48,0,0,1-.54-.06.81.81,0,0,1-.47-.19,1.16,1.16,0,0,1-.3-.36,1.66,1.66,0,0,1-.15-.46,4.24,4.24,0,0,1,0-.53,5,5,0,0,1-1.74,1.28,5,5,0,0,1-2.12.44,4.76,4.76,0,0,1-1.31-.18,3.06,3.06,0,0,1-1.11-.56,2.88,2.88,0,0,1-.76-.93,2.91,2.91,0,0,1-.28-1.31q0-2.64,3.62-3.12Zm2,.6a5.5,5.5,0,0,1-1.55.42c-.52.07-1,.12-1.56.16a4.45,4.45,0,0,0-2.14.62,1.78,1.78,0,0,0-.78,1.58,1.67,1.67,0,0,0,.2.83,1.56,1.56,0,0,0,.5.58,1.87,1.87,0,0,0,.71.34,3,3,0,0,0,.83.11,5.43,5.43,0,0,0,1.4-.18,3.62,3.62,0,0,0,1.21-.55,2.71,2.71,0,0,0,1.18-2.29Z"/><path class="cls-16" d="M199.63,65.52V51.12h1.2v14.4Z"/><path class="cls-16" d="M208.65,59.48a8,8,0,0,0,.81-.12,2.63,2.63,0,0,0,.77-.22.62.62,0,0,0,.37-.47,2.72,2.72,0,0,0,.07-.61,2,2,0,0,0-.59-1.51,2.75,2.75,0,0,0-2-.59,5.8,5.8,0,0,0-1.14.11,2.65,2.65,0,0,0-.91.38,2.13,2.13,0,0,0-.64.72,3.35,3.35,0,0,0-.33,1.13h-1.22a3.75,3.75,0,0,1,.42-1.57,3.28,3.28,0,0,1,.93-1.06,4,4,0,0,1,1.32-.6,6.79,6.79,0,0,1,1.59-.19,6.3,6.3,0,0,1,1.47.17,3.66,3.66,0,0,1,1.2.54,2.53,2.53,0,0,1,.8,1,3.5,3.5,0,0,1,.29,1.52v5.64c0,.47.09.77.25.89s.51.1,1-.09v.94l-.41.12a1.63,1.63,0,0,1-.53.08,2.48,2.48,0,0,1-.54-.06.87.87,0,0,1-.48-.19,1.28,1.28,0,0,1-.29-.36,1.66,1.66,0,0,1-.15-.46,4.24,4.24,0,0,1,0-.53,5.07,5.07,0,0,1-3.86,1.72,4.76,4.76,0,0,1-1.31-.18,3.06,3.06,0,0,1-1.11-.56,2.76,2.76,0,0,1-.76-.93,2.91,2.91,0,0,1-.28-1.31q0-2.64,3.62-3.12Zm2,.6a5.35,5.35,0,0,1-1.54.42c-.52.07-1,.12-1.56.16a4.53,4.53,0,0,0-2.15.62,2,2,0,0,0-.58,2.41,1.77,1.77,0,0,0,.5.58,2,2,0,0,0,.72.34,3,3,0,0,0,.83.11,5.43,5.43,0,0,0,1.4-.18A3.62,3.62,0,0,0,209.5,64a2.67,2.67,0,0,0,1.17-2.29Z"/><path class="cls-16" d="M216.21,65.52H215V55.16h1.2V56.6a8,8,0,0,1,1.49-1.24,3.44,3.44,0,0,1,1.85-.48,4.7,4.7,0,0,1,1.78.33,3,3,0,0,1,1.38,1.15,2.47,2.47,0,0,1,.45,1.15,9.92,9.92,0,0,1,.07,1.23v6.78H222V58.76a3.06,3.06,0,0,0-.62-2.1,2.65,2.65,0,0,0-2.06-.7,3,3,0,0,0-1,.17,3.89,3.89,0,0,0-.83.45,3,3,0,0,0-1,1.4,4.11,4.11,0,0,0-.22,1c0,.31,0,.64,0,1Z"/><path class="cls-16" d="M230.55,59.7v1.24h-5.06V59.7Z"/><path class="cls-16" d="M15.6,82.42a3.5,3.5,0,0,0-1.1-1.81,3,3,0,0,0-2-.65,3.16,3.16,0,0,0-1.58.38,3.27,3.27,0,0,0-1.08,1,4.78,4.78,0,0,0-.62,1.42A6.66,6.66,0,0,0,9,84.36,7.08,7.08,0,0,0,9.23,86a4.32,4.32,0,0,0,.61,1.4,3,3,0,0,0,1.08,1,3.21,3.21,0,0,0,1.6.37A3,3,0,0,0,14.67,88a3.39,3.39,0,0,0,1-2H17a5.46,5.46,0,0,1-.51,1.57,4,4,0,0,1-.9,1.22,3.68,3.68,0,0,1-1.31.79,4.89,4.89,0,0,1-1.74.28,5,5,0,0,1-2.14-.42A4,4,0,0,1,8.9,88.23,4.93,4.93,0,0,1,8,86.5a8.14,8.14,0,0,1-.28-2.14,7.1,7.1,0,0,1,.31-2.07A5.5,5.5,0,0,1,9,80.54a4.35,4.35,0,0,1,3.54-1.66,4.64,4.64,0,0,1,2.91.86,4,4,0,0,1,1.39,2.68Z"/><path class="cls-16" d="M20.12,84.62a5.87,5.87,0,0,0,.22,1.59,4,4,0,0,0,.65,1.3,3.14,3.14,0,0,0,1.09.88,3.37,3.37,0,0,0,1.52.33,3.26,3.26,0,0,0,2-.62,3,3,0,0,0,1.12-1.76h1.34a6,6,0,0,1-.58,1.37,4.17,4.17,0,0,1-.9,1.1,3.66,3.66,0,0,1-1.28.73,5,5,0,0,1-1.72.26,5,5,0,0,1-2.14-.42A4,4,0,0,1,20,88.23a5,5,0,0,1-.86-1.72,8.06,8.06,0,0,1-.28-2.13,6.8,6.8,0,0,1,.33-2.14,5.66,5.66,0,0,1,.94-1.75,4.51,4.51,0,0,1,1.49-1.18,4.62,4.62,0,0,1,2-.43A4.12,4.12,0,0,1,27,80.35a6.4,6.4,0,0,1,1.2,4.27Zm6.76-1a4.8,4.8,0,0,0-.21-1.43A3.32,3.32,0,0,0,26.05,81a3,3,0,0,0-1-.78A3.33,3.33,0,0,0,23.6,80a3.18,3.18,0,0,0-1.41.3,3.41,3.41,0,0,0-1,.8,4.45,4.45,0,0,0-.69,1.16,5.85,5.85,0,0,0-.34,1.4Z"/><path class="cls-16" d="M31.7,89.52H30.5V79.16h1.2V80.6a8,8,0,0,1,1.49-1.24A3.44,3.44,0,0,1,35,78.88a4.7,4.7,0,0,1,1.78.33,3,3,0,0,1,1.38,1.15,2.47,2.47,0,0,1,.45,1.15,9.92,9.92,0,0,1,.07,1.23v6.78h-1.2V82.76a3.06,3.06,0,0,0-.62-2.1,2.65,2.65,0,0,0-2.06-.7,3,3,0,0,0-1,.17,3.89,3.89,0,0,0-.83.45A3,3,0,0,0,32,82a4.11,4.11,0,0,0-.22,1c0,.31,0,.64,0,1Z"/><path class="cls-16" d="M43.68,90.12a2.19,2.19,0,0,1-.41,1.41,2,2,0,0,1-1.05.73v-.74a1.72,1.72,0,0,0,.46-.44,1.39,1.39,0,0,0,.22-.88v-.68h-.68V87.76h1.46Z"/><path class="cls-16" d="M60.74,75.12h1.2v14.4h-1.2V87.7h0a3,3,0,0,1-.67.91,3.82,3.82,0,0,1-.9.65,4.17,4.17,0,0,1-1,.4,3.58,3.58,0,0,1-1,.14A5,5,0,0,1,55,89.38a4,4,0,0,1-1.45-1.15,4.72,4.72,0,0,1-.83-1.73,8.59,8.59,0,0,1-.26-2.14,8,8,0,0,1,.28-2.08,5.28,5.28,0,0,1,.85-1.75A4.21,4.21,0,0,1,55,79.33a4.42,4.42,0,0,1,2-.45,4.84,4.84,0,0,1,2.11.49,3.66,3.66,0,0,1,1.59,1.45Zm0,9.18a5.76,5.76,0,0,0-.24-1.67,4.47,4.47,0,0,0-.69-1.38,3.44,3.44,0,0,0-1.1-.94A3.07,3.07,0,0,0,57.24,80a3.46,3.46,0,0,0-1.62.37,3.39,3.39,0,0,0-1.12,1,4.67,4.67,0,0,0-.64,1.49,7.22,7.22,0,0,0-.16,1.83A5.07,5.07,0,0,0,54,86.39a3.63,3.63,0,0,0,.75,1.27,3.22,3.22,0,0,0,1.12.79,3.6,3.6,0,0,0,1.4.27,3.19,3.19,0,0,0,1.5-.34,3,3,0,0,0,1.1-.93,4,4,0,0,0,.67-1.4A6.12,6.12,0,0,0,60.74,84.3Z"/><path class="cls-16" d="M69.72,83.48a8,8,0,0,0,.81-.12,2.63,2.63,0,0,0,.77-.22.62.62,0,0,0,.37-.47,2.72,2.72,0,0,0,.07-.61,2,2,0,0,0-.59-1.51,2.75,2.75,0,0,0-2-.59,5.8,5.8,0,0,0-1.14.11,2.65,2.65,0,0,0-.91.38,2.13,2.13,0,0,0-.64.72,3.35,3.35,0,0,0-.33,1.13H64.92a3.75,3.75,0,0,1,.42-1.57,3.28,3.28,0,0,1,.93-1.06,4,4,0,0,1,1.32-.6,6.79,6.79,0,0,1,1.59-.19,6.3,6.3,0,0,1,1.47.17,3.66,3.66,0,0,1,1.2.54,2.53,2.53,0,0,1,.8,1,3.5,3.5,0,0,1,.29,1.52v5.64c0,.47.09.77.25.89s.51.1,1-.09v.94l-.41.12a1.63,1.63,0,0,1-.53.08,2.48,2.48,0,0,1-.54-.06.87.87,0,0,1-.48-.19,1.28,1.28,0,0,1-.29-.36,1.66,1.66,0,0,1-.15-.46,4.24,4.24,0,0,1,0-.53A5.07,5.07,0,0,1,67.9,89.8a4.76,4.76,0,0,1-1.31-.18,3.06,3.06,0,0,1-1.11-.56,2.76,2.76,0,0,1-.76-.93,2.91,2.91,0,0,1-.28-1.31q0-2.64,3.62-3.12Zm2,.6a5.35,5.35,0,0,1-1.54.42c-.52.07-1,.12-1.56.16a4.53,4.53,0,0,0-2.15.62,2,2,0,0,0-.58,2.41,1.77,1.77,0,0,0,.5.58,2,2,0,0,0,.72.34,3,3,0,0,0,.83.11,5.43,5.43,0,0,0,1.4-.18A3.62,3.62,0,0,0,70.57,88a2.67,2.67,0,0,0,1.17-2.29Z"/><path class="cls-16" d="M89.64,75.12h1.2v14.4h-1.2V87.7h0a3,3,0,0,1-.67.91,3.82,3.82,0,0,1-.9.65,4.17,4.17,0,0,1-1,.4,3.58,3.58,0,0,1-1,.14,5,5,0,0,1-2.14-.42,4,4,0,0,1-1.45-1.15,4.72,4.72,0,0,1-.83-1.73,8.59,8.59,0,0,1-.26-2.14,8,8,0,0,1,.28-2.08,5.28,5.28,0,0,1,.85-1.75,4.21,4.21,0,0,1,1.44-1.2,4.42,4.42,0,0,1,2-.45,4.84,4.84,0,0,1,2.11.49,3.66,3.66,0,0,1,1.59,1.45Zm0,9.18a5.76,5.76,0,0,0-.24-1.67,4.47,4.47,0,0,0-.69-1.38,3.44,3.44,0,0,0-1.1-.94A3.07,3.07,0,0,0,86.14,80a3.46,3.46,0,0,0-1.62.37,3.39,3.39,0,0,0-1.12,1,4.67,4.67,0,0,0-.64,1.49,7.22,7.22,0,0,0-.16,1.83,5.07,5.07,0,0,0,.27,1.73,3.63,3.63,0,0,0,.75,1.27,3.22,3.22,0,0,0,1.12.79,3.6,3.6,0,0,0,1.4.27,3.19,3.19,0,0,0,1.5-.34,3,3,0,0,0,1.1-.93,4,4,0,0,0,.67-1.4A6.12,6.12,0,0,0,89.64,84.3Z"/><path class="cls-16" d="M94.6,84.62a5.87,5.87,0,0,0,.22,1.59,4,4,0,0,0,.65,1.3,3.14,3.14,0,0,0,1.09.88,3.37,3.37,0,0,0,1.52.33,3.26,3.26,0,0,0,2-.62,3,3,0,0,0,1.12-1.76h1.34a6,6,0,0,1-.58,1.37,4.17,4.17,0,0,1-.9,1.1,3.66,3.66,0,0,1-1.28.73,5,5,0,0,1-1.72.26,5,5,0,0,1-2.14-.42,4,4,0,0,1-1.48-1.15,5,5,0,0,1-.86-1.72,8.06,8.06,0,0,1-.28-2.13,6.8,6.8,0,0,1,.33-2.14,5.66,5.66,0,0,1,.94-1.75,4.51,4.51,0,0,1,1.49-1.18,4.62,4.62,0,0,1,2-.43,4.12,4.12,0,0,1,3.36,1.47,6.4,6.4,0,0,1,1.2,4.27Zm6.76-1a4.8,4.8,0,0,0-.21-1.43,3.32,3.32,0,0,0-.62-1.16,3,3,0,0,0-1-.78A3.33,3.33,0,0,0,98.08,80a3.18,3.18,0,0,0-1.41.3,3.41,3.41,0,0,0-1,.8,4.45,4.45,0,0,0-.69,1.16,5.85,5.85,0,0,0-.34,1.4Z"/><path class="cls-16" d="M111.24,86.28a3.06,3.06,0,0,0,1,1.89,3.42,3.42,0,0,0,2.09.55,3.52,3.52,0,0,0,1.14-.16,2.13,2.13,0,0,0,.79-.43,1.7,1.7,0,0,0,.47-.61,1.58,1.58,0,0,0,.16-.72,1.33,1.33,0,0,0-.49-1.13,3.7,3.7,0,0,0-1.23-.58,15.24,15.24,0,0,0-1.6-.36,8,8,0,0,1-1.6-.45,3.18,3.18,0,0,1-1.23-.86,2.35,2.35,0,0,1-.49-1.58,2.73,2.73,0,0,1,.95-2.13,4,4,0,0,1,2.69-.83,4.59,4.59,0,0,1,2.73.75,3.41,3.41,0,0,1,1.27,2.51h-1.22a2.23,2.23,0,0,0-.91-1.69,3.44,3.44,0,0,0-1.89-.49,2.73,2.73,0,0,0-1.74.49,1.59,1.59,0,0,0-.6,1.29,1.26,1.26,0,0,0,.49,1.07,3.92,3.92,0,0,0,1.23.6,16.2,16.2,0,0,0,1.6.41,7.69,7.69,0,0,1,1.6.51,3.42,3.42,0,0,1,1.23.89,2.3,2.3,0,0,1,.49,1.56,2.55,2.55,0,0,1-.32,1.31,2.66,2.66,0,0,1-.88,1,3.75,3.75,0,0,1-1.33.57,6.83,6.83,0,0,1-1.69.19,4.6,4.6,0,0,1-1.63-.27,3.64,3.64,0,0,1-1.21-.75,3.53,3.53,0,0,1-.78-1.12,4.1,4.1,0,0,1-.32-1.38Z"/><path class="cls-16" d="M120.46,89.52V75.12h1.2v9l5.08-4.92h1.64L124.5,82.9l4.34,6.62H127.5l-3.88-5.78-2,1.86v3.92Z"/><path class="cls-16" d="M137.56,79.16h1.2V89.52h-1.2V88.08c-.16.19-.34.38-.54.58a3.79,3.79,0,0,1-.69.55,3.81,3.81,0,0,1-2.11.59,4.46,4.46,0,0,1-1.74-.29,2.85,2.85,0,0,1-1.13-.81,3.31,3.31,0,0,1-.62-1.21,5.94,5.94,0,0,1-.19-1.51V79.16h1.2V86a3,3,0,0,0,.62,2.05,2.58,2.58,0,0,0,2,.71,2.86,2.86,0,0,0,1.33-.29,2.61,2.61,0,0,0,1-.81,3.61,3.61,0,0,0,.62-1.24,5.25,5.25,0,0,0,.22-1.58Z"/><path class="cls-16" d="M141.84,89.52V75.12H143v14.4Z"/><path class="cls-16" d="M146.28,89.52V75.12h1.2v14.4Z"/><path class="cls-16" d="M151.28,84.62a5.87,5.87,0,0,0,.22,1.59,4,4,0,0,0,.65,1.3,3.14,3.14,0,0,0,1.09.88,3.37,3.37,0,0,0,1.52.33,3.26,3.26,0,0,0,2-.62,3,3,0,0,0,1.12-1.76h1.34a6,6,0,0,1-.58,1.37,4.17,4.17,0,0,1-.9,1.1,3.66,3.66,0,0,1-1.28.73,5,5,0,0,1-1.72.26,5,5,0,0,1-2.14-.42,4,4,0,0,1-1.48-1.15,5,5,0,0,1-.86-1.72,8.06,8.06,0,0,1-.28-2.13,6.8,6.8,0,0,1,.33-2.14,5.66,5.66,0,0,1,.94-1.75,4.51,4.51,0,0,1,1.49-1.18,4.62,4.62,0,0,1,2-.43,4.12,4.12,0,0,1,3.36,1.47,6.4,6.4,0,0,1,1.2,4.27Zm6.76-1a4.8,4.8,0,0,0-.21-1.43,3.32,3.32,0,0,0-.62-1.16,3,3,0,0,0-1-.78,3.33,3.33,0,0,0-1.42-.29,3.18,3.18,0,0,0-1.41.3,3.41,3.41,0,0,0-1,.8,4.45,4.45,0,0,0-.69,1.16,5.85,5.85,0,0,0-.34,1.4Z"/><path class="cls-16" d="M167.14,89.52V75.12h1.2v9l5.08-4.92h1.64l-3.88,3.74,4.34,6.62h-1.34l-3.88-5.78-2,1.86v3.92Z"/><path class="cls-16" d="M177.2,90l-.72-.58L177.64,88a4.86,4.86,0,0,1-.81-1.68,8,8,0,0,1-.25-2,7.31,7.31,0,0,1,.3-2.13,5.14,5.14,0,0,1,.9-1.74,4.26,4.26,0,0,1,1.5-1.18,4.92,4.92,0,0,1,2.1-.43,5.19,5.19,0,0,1,1.73.27,3.94,3.94,0,0,1,1.35.79l1-1.24.7.62-1.1,1.3a5,5,0,0,1,.81,1.68,7.6,7.6,0,0,1,.27,2.06,7,7,0,0,1-.32,2.2,4.83,4.83,0,0,1-.93,1.72,4,4,0,0,1-1.51,1.12,4.92,4.92,0,0,1-2,.4,4.49,4.49,0,0,1-1.89-.35,4.67,4.67,0,0,1-1.21-.75Zm6.48-9.12a2.85,2.85,0,0,0-.84-.61,3.21,3.21,0,0,0-1.46-.29,3.39,3.39,0,0,0-1.61.37,3.24,3.24,0,0,0-1.09,1,4.73,4.73,0,0,0-.62,1.41,6.8,6.8,0,0,0-.2,1.63A6.22,6.22,0,0,0,178,86a3.75,3.75,0,0,0,.44,1.07Zm-4.66,7a2.76,2.76,0,0,0,1.09.68,3.77,3.77,0,0,0,1.27.22,3.22,3.22,0,0,0,1.61-.37,3,3,0,0,0,1.09-1A4.19,4.19,0,0,0,184.7,86a6.2,6.2,0,0,0,.2-1.62,8.07,8.07,0,0,0-.13-1.48,3.58,3.58,0,0,0-.49-1.3Z"/><path class="cls-16" d="M189.6,89.52h-1.2V79.16h1.2V81.1h0a3.6,3.6,0,0,1,1.29-1.73,4,4,0,0,1,2.09-.49v1.3a3.63,3.63,0,0,0-1.68.32,2.85,2.85,0,0,0-1.05.92,3.71,3.71,0,0,0-.54,1.37,8.88,8.88,0,0,0-.15,1.65Z"/><path class="cls-16" d="M195.74,84.62a5.87,5.87,0,0,0,.22,1.59,4,4,0,0,0,.65,1.3,3.14,3.14,0,0,0,1.09.88,3.37,3.37,0,0,0,1.52.33,3.26,3.26,0,0,0,2-.62,3,3,0,0,0,1.12-1.76h1.34a6,6,0,0,1-.58,1.37,4.17,4.17,0,0,1-.9,1.1,3.66,3.66,0,0,1-1.28.73,5,5,0,0,1-1.72.26,5,5,0,0,1-2.14-.42,4,4,0,0,1-1.48-1.15,5,5,0,0,1-.86-1.72,8.06,8.06,0,0,1-.28-2.13,6.8,6.8,0,0,1,.33-2.14,5.66,5.66,0,0,1,.94-1.75,4.51,4.51,0,0,1,1.49-1.18,4.62,4.62,0,0,1,2-.43,4.12,4.12,0,0,1,3.36,1.47,6.45,6.45,0,0,1,1.2,4.27Zm6.76-1a4.8,4.8,0,0,0-.21-1.43,3.32,3.32,0,0,0-.62-1.16,3,3,0,0,0-1-.78,3.33,3.33,0,0,0-1.42-.29,3.18,3.18,0,0,0-1.41.3,3.41,3.41,0,0,0-1,.8,4.45,4.45,0,0,0-.69,1.16,5.41,5.41,0,0,0-.34,1.4Z"/><path class="cls-16" d="M15.28,103.16h1.2v10.36h-1.2v-1.44c-.16.19-.34.38-.54.58a3.79,3.79,0,0,1-.69.55,3.81,3.81,0,0,1-2.11.59,4.46,4.46,0,0,1-1.74-.29,2.85,2.85,0,0,1-1.13-.81,3.31,3.31,0,0,1-.62-1.21A5.94,5.94,0,0,1,8.26,110v-6.82h1.2V110a3,3,0,0,0,.62,2.05,2.58,2.58,0,0,0,2,.71,2.86,2.86,0,0,0,1.33-.29,2.61,2.61,0,0,0,1-.81,3.61,3.61,0,0,0,.62-1.24,5.25,5.25,0,0,0,.22-1.58Z"/><path class="cls-16" d="M27.38,99.12h1.2v14.4h-1.2V111.7h0a3,3,0,0,1-.67.91,3.82,3.82,0,0,1-.9.65,4.17,4.17,0,0,1-1,.4,3.58,3.58,0,0,1-1,.14,5,5,0,0,1-2.14-.42,4,4,0,0,1-1.45-1.15,4.72,4.72,0,0,1-.83-1.73,8.59,8.59,0,0,1-.26-2.14,8,8,0,0,1,.28-2.08,5.28,5.28,0,0,1,.85-1.75,4.21,4.21,0,0,1,1.44-1.2,4.42,4.42,0,0,1,2.05-.45,4.84,4.84,0,0,1,2.11.49,3.66,3.66,0,0,1,1.59,1.45Zm0,9.18a5.76,5.76,0,0,0-.24-1.67,4.47,4.47,0,0,0-.69-1.38,3.44,3.44,0,0,0-1.1-.94,3.07,3.07,0,0,0-1.47-.35,3.46,3.46,0,0,0-1.62.37,3.39,3.39,0,0,0-1.12,1,4.67,4.67,0,0,0-.64,1.49,7.22,7.22,0,0,0-.16,1.83,5.07,5.07,0,0,0,.27,1.73,3.63,3.63,0,0,0,.75,1.27,3.22,3.22,0,0,0,1.12.79,3.6,3.6,0,0,0,1.4.27,3.19,3.19,0,0,0,1.5-.34,3,3,0,0,0,1.1-.93,4,4,0,0,0,.67-1.4A6.12,6.12,0,0,0,27.38,108.3Z"/><path class="cls-16" d="M32.34,108.62a5.87,5.87,0,0,0,.22,1.59,4,4,0,0,0,.65,1.3,3.14,3.14,0,0,0,1.09.88,3.37,3.37,0,0,0,1.52.33,3.26,3.26,0,0,0,2-.62A3,3,0,0,0,39,110.34H40.3a6,6,0,0,1-.58,1.37,4.17,4.17,0,0,1-.9,1.1,3.66,3.66,0,0,1-1.28.73,5,5,0,0,1-1.72.26,5,5,0,0,1-2.14-.42,4,4,0,0,1-1.48-1.15,5,5,0,0,1-.86-1.72,8.06,8.06,0,0,1-.28-2.13,6.8,6.8,0,0,1,.33-2.14,5.66,5.66,0,0,1,.94-1.75,4.51,4.51,0,0,1,1.49-1.18,4.62,4.62,0,0,1,2-.43,4.12,4.12,0,0,1,3.36,1.47,6.4,6.4,0,0,1,1.2,4.27Zm6.76-1a4.8,4.8,0,0,0-.21-1.43,3.32,3.32,0,0,0-.62-1.16,3,3,0,0,0-1-.78,3.33,3.33,0,0,0-1.42-.29,3.18,3.18,0,0,0-1.41.3,3.41,3.41,0,0,0-1,.8,4.45,4.45,0,0,0-.69,1.16,5.85,5.85,0,0,0-.34,1.4Z"/><path class="cls-16" d="M43.92,113.52h-1.2V103.16h1.2v1.44a8,8,0,0,1,1.49-1.24,3.44,3.44,0,0,1,1.85-.48,4.7,4.7,0,0,1,1.78.33,3,3,0,0,1,1.38,1.15,2.47,2.47,0,0,1,.45,1.15,9.92,9.92,0,0,1,.07,1.23v6.78h-1.2v-6.76a3.06,3.06,0,0,0-.62-2.1,2.65,2.65,0,0,0-2.06-.7,3,3,0,0,0-1,.17,3.89,3.89,0,0,0-.83.45,3,3,0,0,0-1,1.4,4.11,4.11,0,0,0-.22,1c0,.31,0,.64,0,1Z"/><path class="cls-16" d="M63.52,113.8a5.27,5.27,0,0,1-1.87-.36,4.08,4.08,0,0,1-1.52-1,5,5,0,0,1-1-1.7,6.87,6.87,0,0,1-.38-2.38,7.31,7.31,0,0,1,.3-2.13,5.09,5.09,0,0,1,.9-1.73,4.35,4.35,0,0,1,1.5-1.17,5.39,5.39,0,0,1,4.22,0,4.45,4.45,0,0,1,1.5,1.16A4.82,4.82,0,0,1,68,106.2a7.43,7.43,0,0,1,.29,2.14,6.8,6.8,0,0,1-.34,2.24,4.91,4.91,0,0,1-1,1.72,4.21,4.21,0,0,1-1.52,1.11A4.84,4.84,0,0,1,63.52,113.8ZM67,108.34a6.82,6.82,0,0,0-.2-1.72,4.1,4.1,0,0,0-.62-1.39,3,3,0,0,0-1.08-.93,3.59,3.59,0,0,0-1.62-.34,3.39,3.39,0,0,0-1.61.37,3.32,3.32,0,0,0-1.09,1,4.56,4.56,0,0,0-.62,1.4,6.8,6.8,0,0,0-.2,1.63,6.59,6.59,0,0,0,.23,1.77,4.28,4.28,0,0,0,.67,1.39,3,3,0,0,0,1.1.9,3.36,3.36,0,0,0,1.52.32,3.22,3.22,0,0,0,1.61-.37,3,3,0,0,0,1.09-1,4.33,4.33,0,0,0,.62-1.4A6.2,6.2,0,0,0,67,108.34Z"/><path class="cls-16" d="M71.56,113.52h-1.2V103.16h1.2v1.56h0a3.23,3.23,0,0,1,1.32-1.37,3.91,3.91,0,0,1,1.88-.47A4.25,4.25,0,0,1,76,103a2.71,2.71,0,0,1,.85.43,2.31,2.31,0,0,1,.58.63,3.56,3.56,0,0,1,.39.78,3.53,3.53,0,0,1,1.39-1.51,4.07,4.07,0,0,1,2-.49,3.51,3.51,0,0,1,1.69.35,2.53,2.53,0,0,1,1,.92,3.45,3.45,0,0,1,.45,1.31,9.54,9.54,0,0,1,.11,1.52v6.54h-1.2v-7.16a2.89,2.89,0,0,0-.47-1.76A2.05,2.05,0,0,0,81,104a3,3,0,0,0-1.27.29,3.09,3.09,0,0,0-1.07.89,2.73,2.73,0,0,0-.33.61c-.08.24-.15.48-.21.73a7,7,0,0,0-.11.76c0,.26,0,.49,0,.7v5.58H76.8v-7.16a2.89,2.89,0,0,0-.47-1.76,2.05,2.05,0,0,0-1.75-.64,3,3,0,0,0-1.27.29,3.09,3.09,0,0,0-1.07.89,2.73,2.73,0,0,0-.33.61c-.08.24-.15.48-.21.73a7,7,0,0,0-.11.76c0,.26,0,.49,0,.7Z"/><path class="cls-16" d="M93.94,113.52h-1.2V103.16h1.2v1.44a8,8,0,0,1,1.49-1.24,3.44,3.44,0,0,1,1.85-.48,4.7,4.7,0,0,1,1.78.33,3,3,0,0,1,1.38,1.15,2.47,2.47,0,0,1,.45,1.15,9.92,9.92,0,0,1,.07,1.23v6.78h-1.2v-6.76a3.06,3.06,0,0,0-.62-2.1,2.65,2.65,0,0,0-2.06-.7,3,3,0,0,0-1,.17,3.89,3.89,0,0,0-.83.45,3,3,0,0,0-1,1.4,4.11,4.11,0,0,0-.22,1c0,.31,0,.64,0,1Z"/><path class="cls-16" d="M108,113.8a5.27,5.27,0,0,1-1.87-.36,4.08,4.08,0,0,1-1.52-1,5,5,0,0,1-1-1.7,6.87,6.87,0,0,1-.38-2.38,7.31,7.31,0,0,1,.3-2.13,5.09,5.09,0,0,1,.9-1.73,4.35,4.35,0,0,1,1.5-1.17,5.39,5.39,0,0,1,4.22,0,4.45,4.45,0,0,1,1.5,1.16,4.82,4.82,0,0,1,.89,1.73,7.43,7.43,0,0,1,.29,2.14,6.8,6.8,0,0,1-.34,2.24,4.91,4.91,0,0,1-1,1.72,4.21,4.21,0,0,1-1.52,1.11A4.84,4.84,0,0,1,108,113.8Zm3.52-5.46a6.82,6.82,0,0,0-.2-1.72,4.1,4.1,0,0,0-.62-1.39,3,3,0,0,0-1.08-.93A3.59,3.59,0,0,0,108,104a3.39,3.39,0,0,0-1.61.37,3.32,3.32,0,0,0-1.09,1,4.56,4.56,0,0,0-.62,1.4,6.8,6.8,0,0,0-.2,1.63,6.59,6.59,0,0,0,.23,1.77,4.28,4.28,0,0,0,.67,1.39,3,3,0,0,0,1.1.9,3.36,3.36,0,0,0,1.52.32,3.22,3.22,0,0,0,1.61-.37,3,3,0,0,0,1.09-1,4.33,4.33,0,0,0,.62-1.4A6.2,6.2,0,0,0,111.5,108.34Z"/><path class="cls-16" d="M123,103.16h1.2v9.36a9.13,9.13,0,0,1-.21,2,4.24,4.24,0,0,1-.75,1.67,3.67,3.67,0,0,1-1.48,1.15,6.91,6.91,0,0,1-4.38.14,4.16,4.16,0,0,1-1.34-.73,3.13,3.13,0,0,1-.79-1,2.51,2.51,0,0,1-.29-1h1.28a2.39,2.39,0,0,0,.44,1,2.19,2.19,0,0,0,.71.58,3,3,0,0,0,.91.29,5.92,5.92,0,0,0,1,.08,3.93,3.93,0,0,0,2-.42,2.76,2.76,0,0,0,1.12-1.1,4,4,0,0,0,.49-1.54,10.23,10.23,0,0,0,.09-1.76,3.6,3.6,0,0,1-1.59,1.45,4.7,4.7,0,0,1-2.11.49,4.42,4.42,0,0,1-2-.45,4.21,4.21,0,0,1-1.44-1.2,5.19,5.19,0,0,1-.85-1.75,7.91,7.91,0,0,1-.28-2.08,8.65,8.65,0,0,1,.26-2.14,4.88,4.88,0,0,1,.83-1.73,4.12,4.12,0,0,1,1.45-1.15,5,5,0,0,1,2.14-.42,4,4,0,0,1,1,.14,5.18,5.18,0,0,1,1,.4,4.17,4.17,0,0,1,.9.66,3.41,3.41,0,0,1,.67.9h0Zm0,5.22a6.17,6.17,0,0,0-.23-1.75,4.14,4.14,0,0,0-.67-1.4,3.2,3.2,0,0,0-1.1-.93,3.31,3.31,0,0,0-1.5-.34,3.6,3.6,0,0,0-1.4.27A3.36,3.36,0,0,0,117,105a3.72,3.72,0,0,0-.75,1.27,5.11,5.11,0,0,0-.27,1.73,7.13,7.13,0,0,0,.16,1.83,4.48,4.48,0,0,0,.64,1.49,3.18,3.18,0,0,0,1.12,1,3.34,3.34,0,0,0,1.62.37,3,3,0,0,0,1.47-.35,3.21,3.21,0,0,0,1.1-.94,4.26,4.26,0,0,0,.69-1.38A5.67,5.67,0,0,0,123,108.38Z"/><path class="cls-16" d="M127.94,108.62a5.87,5.87,0,0,0,.22,1.59,4,4,0,0,0,.65,1.3,3.14,3.14,0,0,0,1.09.88,3.37,3.37,0,0,0,1.52.33,3.26,3.26,0,0,0,2-.62,3,3,0,0,0,1.12-1.76h1.34a6,6,0,0,1-.58,1.37,4.17,4.17,0,0,1-.9,1.1,3.66,3.66,0,0,1-1.28.73,5,5,0,0,1-1.72.26,5,5,0,0,1-2.14-.42,4,4,0,0,1-1.48-1.15,5,5,0,0,1-.86-1.72,8.06,8.06,0,0,1-.28-2.13,6.8,6.8,0,0,1,.33-2.14,5.66,5.66,0,0,1,.94-1.75,4.51,4.51,0,0,1,1.49-1.18,4.62,4.62,0,0,1,2-.43,4.12,4.12,0,0,1,3.36,1.47,6.4,6.4,0,0,1,1.2,4.27Zm6.76-1a4.8,4.8,0,0,0-.21-1.43,3.32,3.32,0,0,0-.62-1.16,3,3,0,0,0-1-.78,3.33,3.33,0,0,0-1.42-.29,3.18,3.18,0,0,0-1.41.3,3.41,3.41,0,0,0-1,.8,4.45,4.45,0,0,0-.69,1.16,5.85,5.85,0,0,0-.34,1.4Z"/><path class="cls-16" d="M142,113.56l-.58.14a2.83,2.83,0,0,1-.8.1,1.92,1.92,0,0,1-1.37-.45,2.19,2.19,0,0,1-.47-1.61v-7.58h-1.46v-1h1.46v-2.88h1.2v2.88h1.94v1h-1.94v7.1c0,.26,0,.48,0,.66a1.34,1.34,0,0,0,.12.46.57.57,0,0,0,.31.26,1.58,1.58,0,0,0,.59.08,2.7,2.7,0,0,0,.49,0,3.86,3.86,0,0,0,.49-.1Z"/><text class="cls-11" transform="translate(4.82 295.52)">55%<tspan class="cls-12" x="80.06" y="0"> </tspan><tspan class="cls-13" x="91.17" y="0">Andet</tspan></text></svg>
