<svg id="Layer_1" data-name="Layer 1" xmlns="http://www.w3.org/2000/svg" width="250" height="200" viewBox="0 0 250 200"><defs><style>.cls-1{fill:none;stroke:#000;stroke-linecap:round;stroke-miterlimit:10;stroke-width:5px;}</style></defs><title>Artboard 5</title><path d="M50,67.88a43,43,0,1,1-43,43,43,43,0,0,1,43-43m0-5a48,48,0,1,0,48,48,48,48,0,0,0-48-48Z"/><path d="M200,67.88a43,43,0,1,1-43,43,43,43,0,0,1,43-43m0-5a48,48,0,1,0,48,48,48,48,0,0,0-48-48Z"/><line class="cls-1" x1="50.5" y1="110.38" x2="82.5" y2="21.13"/><line class="cls-1" x1="200.5" y1="110.38" x2="125.5" y2="110.38"/><line class="cls-1" x1="71.5" y1="55.38" x2="125.5" y2="110.38"/><line class="cls-1" x1="175.5" y1="41.38" x2="200.5" y2="110.38"/><line class="cls-1" x1="125.5" y1="110.38" x2="175.5" y2="41.38"/><line class="cls-1" x1="79.5" y1="21.13" x2="112.5" y2="21.13"/><line class="cls-1" x1="155.5" y1="40.38" x2="183.5" y2="40.38"/><line class="cls-1" x1="71.5" y1="53.13" x2="164.5" y2="53.13"/></svg>
