<svg id="Layer_1" data-name="Layer 1" xmlns="http://www.w3.org/2000/svg" width="1136" height="374" viewBox="0 0 1136 374"><defs><style>.cls-1{fill:#ededed;}.cls-2{fill:#eaeaea;}.cls-3{fill:#424242;}.cls-4{fill:#727272;}.cls-5{fill:#bcbcbc;}.cls-10,.cls-6,.cls-7,.cls-9{fill:none;}.cls-6,.cls-7,.cls-8,.cls-9{stroke:#000;}.cls-6,.cls-7,.cls-9{stroke-linecap:round;}.cls-10,.cls-6,.cls-7,.cls-8,.cls-9{stroke-miterlimit:10;}.cls-6,.cls-8{stroke-width:11px;}.cls-7{stroke-width:7px;}.cls-9{stroke-width:17px;}.cls-10{stroke:#fff;stroke-width:2px;}.cls-11{font-size:40px;fill:#34ff00;font-family:Helvetica-Bold, Helvetica;font-weight:700;}.cls-12{fill:#000;}.cls-13,.cls-14{fill:#fff;font-size:20px;font-family:Helvetica-Light, Helvetica;font-weight:300;}</style></defs><title>Artboard 12</title><circle class="cls-1" cx="737" cy="250" r="86"/><polygon class="cls-2" points="434 330 452 332 446 250 434 246 434 330"/><polygon class="cls-3" points="439 248 446.31 332.36 475.04 325.72 486 320 439 248"/><polygon class="cls-4" points="439 249 439 335 416.53 330.88 398.94 325.21 383.62 313.86 373.4 301.94 360.92 283.21 354.68 265.06 354.11 244.06 356 224 359 213 364 201 376.24 189.58 388 175 407.45 172.56 420.5 164.61 432.42 164.61 439 163 439 249"/><path class="cls-5" d="M439,248V162s38,4.2,43.52,11.1,21.29,7.91,26.88,24.4,16.36,23.78,14.48,37.64S521,274.43,521,274.43l-8.28,19-12.4,16.13L487.5,322.5"/><path class="cls-5" d="M734.5,248.5v-86s38,4.2,43.52,11.1,21.29,7.91,26.88,24.4,16.36,23.78,14.48,37.64-2.89,39.29-2.89,39.29l-8.28,19-12.4,16.13L783,323"/><circle class="cls-6" cx="439.5" cy="248.5" r="86"/><circle class="cls-6" cx="734.5" cy="248.5" r="86"/><line class="cls-6" x1="496.5" y1="177.5" x2="529.5" y2="135.5"/><path class="cls-6" d="M708.5,166.5l-23-81s-9-17,4-21,18-22,11-28-46-8-46-8"/><path class="cls-6" d="M525.5,248.5l84,1s9.8-95.33,88.9-116.66"/><line class="cls-6" x1="570.5" y1="247.5" x2="513.5" y2="88.5"/><circle class="cls-7" cx="522" cy="114" r="6.5"/><circle class="cls-7" cx="688" cy="94" r="6.5"/><path class="cls-8" d="M492.89,74.5,535,78c18,.52,16.28,3.54,12.68,4.52-11.35,3.08-47.59,6.19-53.44,4a10.72,10.72,0,0,1-6.68-6C486.54,78.24,489.47,74.37,492.89,74.5Z"/><line class="cls-9" x1="645.5" y1="27.5" x2="677.5" y2="29.5"/><line class="cls-10" x1="787.5" y1="216.5" x2="859.23" y2="153.31"/><text class="cls-11" transform="translate(869.82 126.52)">40%<tspan class="cls-12" x="80.06" y="0"> </tspan><tspan class="cls-13" x="91.17" y="0">ved ikke </tspan><tspan class="cls-14"><tspan x="0" y="24">at cykler med lav </tspan><tspan x="0" y="48">indstilling også er </tspan><tspan x="0" y="72">beregnet til mænd</tspan></tspan></text><line class="cls-10" x1="303.4" y1="110.47" x2="451.56" y2="193.18"/><line class="cls-10" x1="307.22" y1="165.96" x2="385.45" y2="213.25"/><line class="cls-10" x1="310.63" y1="232.73" x2="449.64" y2="293.59"/><line class="cls-10" x1="314.22" y1="291.49" x2="441.46" y2="315.57"/><text class="cls-11" transform="translate(131.82 303.52)">1%<tspan class="cls-12" x="57.81" y="0"> </tspan><tspan class="cls-13" x="68.93" y="0">andet</tspan></text><text class="cls-11" transform="translate(132.82 240.52)">9%<tspan class="cls-12" x="57.81" y="0"> </tspan><tspan class="cls-13" x="68.93" y="0">unisexcykel</tspan></text><text class="cls-11" transform="translate(110.82 172.52)">41%<tspan class="cls-12" x="80.06" y="0"> </tspan><tspan class="cls-13" x="91.17" y="0">herrecykel</tspan></text><text class="cls-11" transform="translate(106.82 110.52)">49%<tspan class="cls-12" x="80.06" y="0"> </tspan><tspan class="cls-13" x="91.17" y="0">damecykel</tspan></text></svg>
