<svg id="Layer_1" data-name="Layer 1" xmlns="http://www.w3.org/2000/svg" width="973" height="338" viewBox="0 0 973 338"><defs><style>.cls-1{fill:#ededed;}.cls-2{fill:#eaeaea;}.cls-3{fill:#424242;}.cls-4{fill:#727272;}.cls-5{fill:#bcbcbc;}.cls-10,.cls-6,.cls-7,.cls-9{fill:none;}.cls-6,.cls-7,.cls-8,.cls-9{stroke:#000;}.cls-6,.cls-7,.cls-9{stroke-linecap:round;}.cls-10,.cls-6,.cls-7,.cls-8,.cls-9{stroke-miterlimit:10;}.cls-6,.cls-8{stroke-width:11px;}.cls-7{stroke-width:7px;}.cls-9{stroke-width:17px;}.cls-10{stroke:#fff;stroke-width:2px;}.cls-11{font-size:40px;fill:#34ff00;font-family:Helvetica-Bold, Helvetica;font-weight:700;}.cls-12{fill:#000;}.cls-13,.cls-14{fill:#fff;font-size:20px;font-family:Helvetica-Light, Helvetica;font-weight:300;}</style></defs><title>infografik3</title><circle class="cls-1" cx="651" cy="235" r="86"/><polygon class="cls-2" points="348 315 366 317 360 235 348 231 348 315"/><polygon class="cls-3" points="353 233 360.31 317.36 389.04 310.72 400 305 353 233"/><polygon class="cls-4" points="353 234 353 320 330.53 315.88 312.94 310.21 297.62 298.86 287.4 286.94 274.92 268.21 268.68 250.06 268.11 229.06 270 209 273 198 278 186 290.24 174.58 302 160 321.45 157.56 334.5 149.61 346.42 149.61 353 148 353 234"/><path class="cls-5" d="M353,233V147s38,4.2,43.52,11.1,21.29,7.91,26.88,24.4,16.36,23.78,14.48,37.64S435,259.43,435,259.43l-8.28,19-12.4,16.13L401.5,307.5"/><path class="cls-5" d="M648.5,233.5v-86s38,4.2,43.52,11.1,21.29,7.91,26.88,24.4,16.36,23.78,14.48,37.64-2.89,39.29-2.89,39.29l-8.28,19-12.4,16.13L697,308"/><circle class="cls-6" cx="353.5" cy="233.5" r="86"/><circle class="cls-6" cx="648.5" cy="233.5" r="86"/><line class="cls-6" x1="410.5" y1="162.5" x2="443.5" y2="120.5"/><path class="cls-6" d="M622.5,151.5l-23-81s-9-17,4-21,18-22,11-28-46-8-46-8"/><path class="cls-6" d="M439.5,233.5l84,1s9.8-95.33,88.9-116.66"/><line class="cls-6" x1="484.5" y1="232.5" x2="427.5" y2="73.5"/><circle class="cls-7" cx="436" cy="99" r="6.5"/><circle class="cls-7" cx="602" cy="79" r="6.5"/><path class="cls-8" d="M406.89,59.5,449,63c18,.52,16.28,3.54,12.68,4.52-11.35,3.08-47.59,6.19-53.44,4a10.72,10.72,0,0,1-6.68-6C400.54,63.24,403.47,59.37,406.89,59.5Z"/><line class="cls-9" x1="559.5" y1="12.5" x2="591.5" y2="14.5"/><line class="cls-10" x1="701.5" y1="201.5" x2="773.23" y2="138.31"/><text class="cls-11" transform="translate(783.82 111.52)">40%<tspan class="cls-12" x="80.06" y="0"> </tspan><tspan class="cls-13" x="91.17" y="0">ved ikke </tspan><tspan class="cls-14"><tspan x="0" y="24">at cykler med lav </tspan><tspan x="0" y="48">indstilling også er </tspan><tspan x="0" y="72">beregnet til mænd</tspan></tspan></text><line class="cls-10" x1="217.4" y1="95.47" x2="365.56" y2="178.18"/><line class="cls-10" x1="221.22" y1="150.96" x2="299.45" y2="198.25"/><line class="cls-10" x1="224.63" y1="217.73" x2="363.64" y2="278.59"/><line class="cls-10" x1="228.22" y1="276.49" x2="355.46" y2="300.57"/><text class="cls-11" transform="translate(45.82 288.52)">1%<tspan class="cls-12" x="57.81" y="0"> </tspan><tspan class="cls-13" x="68.93" y="0">andet</tspan></text><text class="cls-11" transform="translate(46.82 225.52)">9%<tspan class="cls-12" x="57.81" y="0"> </tspan><tspan class="cls-13" x="68.93" y="0">unisexcykel</tspan></text><text class="cls-11" transform="translate(24.82 157.52)">41%<tspan class="cls-12" x="80.06" y="0"> </tspan><tspan class="cls-13" x="91.17" y="0">herrecykel</tspan></text><text class="cls-11" transform="translate(20.82 95.52)">49%<tspan class="cls-12" x="80.06" y="0"> </tspan><tspan class="cls-13" x="91.17" y="0">damecykel</tspan></text></svg>
