<svg id="Layer_1" data-name="Layer 1" xmlns="http://www.w3.org/2000/svg" width="1015" height="379" viewBox="0 0 1015 379"><defs><style>.cls-1{fill:#ededed;}.cls-2{fill:#eaeaea;}.cls-3{fill:#424242;}.cls-4{fill:#727272;}.cls-5{fill:#bcbcbc;}.cls-10,.cls-6,.cls-7,.cls-9{fill:none;}.cls-10,.cls-6,.cls-7,.cls-8,.cls-9{stroke:#000;stroke-miterlimit:10;}.cls-6,.cls-7,.cls-9{stroke-linecap:round;}.cls-6,.cls-8{stroke-width:11px;}.cls-7{stroke-width:7px;}.cls-9{stroke-width:17px;}.cls-10{stroke-width:2px;}.cls-11{font-size:40px;fill:#34ff00;font-family:Helvetica-Bold, Helvetica;font-weight:700;}.cls-12,.cls-13{fill:#000;}.cls-13{font-size:20px;font-family:Helvetica-Light, Helvetica;font-weight:300;}</style></defs><title>Artboard 8</title><circle class="cls-1" cx="663" cy="261" r="86"/><polygon class="cls-2" points="360 341 378 343 372 261 360 257 360 341"/><polygon class="cls-3" points="365 259 372.31 343.36 401.04 336.72 412 331 365 259"/><polygon class="cls-4" points="365 260 365 346 342.53 341.88 324.94 336.21 309.62 324.86 299.4 312.94 286.92 294.21 280.68 276.06 280.11 255.06 282 235 285 224 290 212 302.24 200.58 314 186 333.45 183.56 346.5 175.61 358.42 175.61 365 174 365 260"/><path class="cls-5" d="M365,259V173s38,4.2,43.52,11.1,21.29,7.91,26.88,24.4,16.36,23.78,14.48,37.64S447,285.43,447,285.43l-8.28,19-12.4,16.13L413.5,333.5"/><path class="cls-5" d="M660.5,259.5v-86s38,4.2,43.52,11.1,21.29,7.91,26.88,24.4,16.36,23.78,14.48,37.64-2.89,39.29-2.89,39.29l-8.28,19-12.4,16.13L709,334"/><circle class="cls-6" cx="365.5" cy="259.5" r="86"/><circle class="cls-6" cx="660.5" cy="259.5" r="86"/><line class="cls-6" x1="422.5" y1="188.5" x2="455.5" y2="146.5"/><path class="cls-6" d="M634.5,177.5l-23-81s-9-17,4-21,18-22,11-28-46-8-46-8"/><path class="cls-6" d="M451.5,259.5l84,1s9.8-95.33,88.9-116.66"/><line class="cls-6" x1="496.5" y1="258.5" x2="439.5" y2="99.5"/><circle class="cls-7" cx="448" cy="125" r="6.5"/><circle class="cls-7" cx="614" cy="105" r="6.5"/><path class="cls-8" d="M418.89,85.5,461,89c18,.52,16.28,3.54,12.68,4.52-11.35,3.08-47.59,6.19-53.44,4a10.72,10.72,0,0,1-6.68-6C412.54,89.24,415.47,85.37,418.89,85.5Z"/><line class="cls-9" x1="571.5" y1="38.5" x2="603.5" y2="40.5"/><line class="cls-10" x1="713.5" y1="227.5" x2="785.23" y2="164.31"/><text class="cls-11" transform="translate(795.82 137.52)">40%<tspan class="cls-12" x="80.06" y="0"> </tspan><tspan class="cls-13" x="91.17" y="0">ved ikke </tspan><tspan class="cls-13"><tspan x="0" y="24">at cykler med lav </tspan><tspan x="0" y="48">indstilling også er </tspan><tspan x="0" y="72">beregnet til mænd</tspan></tspan></text><line class="cls-10" x1="229.4" y1="121.47" x2="377.56" y2="204.18"/><line class="cls-10" x1="233.22" y1="176.96" x2="311.45" y2="224.25"/><line class="cls-10" x1="236.63" y1="243.73" x2="375.64" y2="304.59"/><line class="cls-10" x1="240.22" y1="302.49" x2="367.46" y2="326.57"/><text class="cls-11" transform="translate(57.82 314.52)">1%<tspan class="cls-12" x="57.81" y="0"> </tspan><tspan class="cls-13" x="68.93" y="0">andet</tspan></text><text class="cls-11" transform="translate(58.82 251.52)">9%<tspan class="cls-12" x="57.81" y="0"> </tspan><tspan class="cls-13" x="68.93" y="0">unisexcykel</tspan></text><text class="cls-11" transform="translate(36.82 183.52)">41%<tspan class="cls-12" x="80.06" y="0"> </tspan><tspan class="cls-13" x="91.17" y="0">herrecykel</tspan></text><text class="cls-11" transform="translate(32.82 121.52)">49%<tspan class="cls-12" x="80.06" y="0"> </tspan><tspan class="cls-13" x="91.17" y="0">damecykel</tspan></text></svg>
