<svg id="Layer_1" data-name="Layer 1" xmlns="http://www.w3.org/2000/svg" width="1264" height="316" viewBox="0 0 1264 316"><defs><style>.cls-1{fill:#34ff00;stroke:#333552;stroke-miterlimit:10;stroke-width:0.1px;}</style></defs><title>Artboard 10 copy 2</title><path class="cls-1" d="M195.4,255.5a60.4,60.4,0,1,1,60.4,60.4A60.5,60.5,0,0,1,195.4,255.5Zm6.8,0A53.6,53.6,0,1,0,255.8,202,53.6,53.6,0,0,0,202.2,255.5Z"/><path class="cls-1" d="M.1,255.5a60.4,60.4,0,1,1,60.3,60.3A60.4,60.4,0,0,1,.1,255.5Zm6.8,0A53.6,53.6,0,1,0,60.4,202,53.6,53.6,0,0,0,6.9,255.5Z"/><path class="cls-1" d="M257.1,259.6a3.4,3.4,0,0,0,2.1-.8,3.3,3.3,0,0,0,.5-4.7l-60.9-75.5a3.3,3.3,0,0,0-4.7-.5,3.4,3.4,0,0,0-.6,4.7l61,75.5A3.3,3.3,0,0,0,257.1,259.6Z"/><path class="cls-1" d="M60.4,258.9a3.4,3.4,0,0,0,3.3-2.4L96,148.9c.8-1.6,3.6-7.9,1.5-13a8.9,8.9,0,0,0-.9-1.6c6.2-.3,13.4-.5,20.8-.5a3.5,3.5,0,0,0,3.4-3.4,3.4,3.4,0,0,0-3.4-3.4c-11.7,0-39.6.5-44.6,4.8-1,.8-3.3,2.8-1.8,5.4s4,1.7,6,1.1,8.1-2.6,12.2-1.4a2.6,2.6,0,0,1,2,1.6c.9,2.1-.5,6-1.3,7.5l-.2.3v.3l-32.4,108a3.5,3.5,0,0,0,2.3,4.2Z"/><path class="cls-1" d="M257.1,259.6a3.5,3.5,0,0,0,3.4-3.4,3.4,3.4,0,0,0-3.4-3.4l-90-1.3a3.3,3.3,0,0,0-3.4,3.3,3.2,3.2,0,0,0,3.3,3.4l90,1.4Z"/><path class="cls-1" d="M169,258.2a3.3,3.3,0,0,0,3.2-2.2L210,150.7a3.4,3.4,0,0,0-6.4-2.3L165.8,253.7a3.3,3.3,0,0,0,2.1,4.3A2.2,2.2,0,0,0,169,258.2Z"/><path class="cls-1" d="M200.8,174.1a7.6,7.6,0,0,1-7.3-8h0a7.6,7.6,0,0,1,8-7.3,7.8,7.8,0,0,1,5.3,2.5,7.5,7.5,0,0,1,2,5.5,7.8,7.8,0,0,1-7.7,7.4Zm-.6-7.7h0a1,1,0,0,0,.9,1,1.1,1.1,0,0,0,1-.9,1.5,1.5,0,0,0-.3-.7l-.6-.3h-.1A1,1,0,0,0,200.2,166.4Z"/><path class="cls-1" d="M86.9,159.6a7.8,7.8,0,0,1-3.2-4.9,7.5,7.5,0,0,1,1.2-5.8,7.7,7.7,0,0,1,12.7,8.6,7.9,7.9,0,0,1-4.9,3.3H91.2A7.5,7.5,0,0,1,86.9,159.6Zm3.6-6.9a1.1,1.1,0,0,0-.2.7.7.7,0,0,0,.4.6.6.6,0,0,0,.7.1.7.7,0,0,0,.6-.4.8.8,0,0,0-.3-1.2l-.5-.2A.7.7,0,0,0,90.5,152.7Z"/><path class="cls-1" d="M220.4,140.3l-27.9,2.3c-11.9.4-10.7,2.4-8.4,3,7.6,2,31.6,4.1,35.4,2.7a7.5,7.5,0,0,0,4.5-4C224.6,142.8,222.7,140.2,220.4,140.3Z"/><path class="cls-1" d="M183.3,148.9c-3.3-.9-4.3-3.1-4.1-4.8.5-3.8,5-4.6,13.1-4.9l27.8-2.3h.2a7.2,7.2,0,0,1,6,3.2,5.7,5.7,0,0,1,.7,5.6,10.2,10.2,0,0,1-6.3,5.7,24,24,0,0,1-7.1.7C204,152.1,188.5,150.3,183.3,148.9Zm21.6-3.9c6.4.4,12,.5,13.4.1a3.9,3.9,0,0,0,2.1-1.4Zm-20.1-2.7Z"/><path class="cls-1" d="M167,258.2a3.5,3.5,0,0,0,2.5-1,3.3,3.3,0,0,0-.1-4.7L88.6,173a3.4,3.4,0,1,0-4.7,4.8l80.8,79.5A3.3,3.3,0,0,0,167,258.2Z"/><path class="cls-1" d="M86.3,178.8H194.9a3.4,3.4,0,0,0,0-6.8H86.3a3.4,3.4,0,1,0,0,6.8Z"/><path class="cls-1" d="M511.4,255.5a60.4,60.4,0,1,1,60.4,60.4A60.5,60.5,0,0,1,511.4,255.5Zm6.8,0A53.6,53.6,0,1,0,571.8,202,53.6,53.6,0,0,0,518.2,255.5Z"/><path class="cls-1" d="M316.1,255.5a60.4,60.4,0,1,1,60.3,60.3A60.4,60.4,0,0,1,316.1,255.5Zm6.8,0A53.6,53.6,0,1,0,376.4,202,53.6,53.6,0,0,0,322.9,255.5Z"/><path class="cls-1" d="M573.1,259.6a3.4,3.4,0,0,0,2.1-.8,3.3,3.3,0,0,0,.5-4.7l-60.9-75.5a3.3,3.3,0,0,0-4.7-.5,3.4,3.4,0,0,0-.6,4.7l61,75.5A3.3,3.3,0,0,0,573.1,259.6Z"/><path class="cls-1" d="M376.4,258.9a3.4,3.4,0,0,0,3.3-2.4L412,148.9c.8-1.6,3.6-7.9,1.5-13a8.9,8.9,0,0,0-.9-1.6c6.2-.3,13.4-.5,20.8-.5a3.5,3.5,0,0,0,3.4-3.4,3.4,3.4,0,0,0-3.4-3.4c-11.7,0-39.6.5-44.6,4.8-1,.8-3.3,2.8-1.8,5.4s4,1.7,6,1.1,8.1-2.6,12.2-1.4a2.6,2.6,0,0,1,2,1.6c.9,2.1-.5,6-1.3,7.5l-.2.3v.3l-32.4,108a3.5,3.5,0,0,0,2.3,4.2Z"/><path class="cls-1" d="M573.1,259.6a3.5,3.5,0,0,0,3.4-3.4,3.4,3.4,0,0,0-3.4-3.4l-90-1.3a3.3,3.3,0,0,0-3.4,3.3,3.2,3.2,0,0,0,3.3,3.4l90,1.4Z"/><path class="cls-1" d="M485,258.2a3.3,3.3,0,0,0,3.2-2.2L526,150.7a3.4,3.4,0,0,0-6.4-2.3L481.8,253.7a3.3,3.3,0,0,0,2.1,4.3A2.2,2.2,0,0,0,485,258.2Z"/><path class="cls-1" d="M516.8,174.1a7.6,7.6,0,0,1-7.3-8h0a7.6,7.6,0,0,1,8-7.3,7.8,7.8,0,0,1,5.3,2.5,7.5,7.5,0,0,1,2,5.5,7.8,7.8,0,0,1-7.7,7.4Zm-.6-7.7h0a1,1,0,0,0,.9,1,1.1,1.1,0,0,0,1-.9,1.5,1.5,0,0,0-.3-.7l-.6-.3h-.1A1,1,0,0,0,516.2,166.4Z"/><path class="cls-1" d="M402.9,159.6a7.8,7.8,0,0,1-3.2-4.9,7.5,7.5,0,0,1,1.2-5.8,7.7,7.7,0,0,1,12.7,8.6,7.9,7.9,0,0,1-4.9,3.3h-1.5A7.5,7.5,0,0,1,402.9,159.6Zm3.6-6.9a1.1,1.1,0,0,0-.2.7.7.7,0,0,0,.4.6.6.6,0,0,0,.7.1.7.7,0,0,0,.6-.4.8.8,0,0,0-.3-1.2l-.5-.2A.7.7,0,0,0,406.5,152.7Z"/><path class="cls-1" d="M536.4,140.3l-27.9,2.3c-11.9.4-10.7,2.4-8.4,3,7.6,2,31.6,4.1,35.4,2.7a7.5,7.5,0,0,0,4.5-4C540.6,142.8,538.7,140.2,536.4,140.3Z"/><path class="cls-1" d="M499.3,148.9c-3.3-.9-4.3-3.1-4.1-4.8.5-3.8,5-4.6,13.1-4.9l27.8-2.3h.2a7.2,7.2,0,0,1,6,3.2,5.7,5.7,0,0,1,.7,5.6,10.2,10.2,0,0,1-6.3,5.7,24,24,0,0,1-7.1.7C520,152.1,504.5,150.3,499.3,148.9Zm21.6-3.9c6.4.4,12,.5,13.4.1a3.9,3.9,0,0,0,2.1-1.4Zm-20.1-2.7Z"/><path class="cls-1" d="M483,258.2a3.5,3.5,0,0,0,2.5-1,3.3,3.3,0,0,0-.1-4.7L404.6,173a3.4,3.4,0,1,0-4.7,4.8l80.8,79.5A3.3,3.3,0,0,0,483,258.2Z"/><path class="cls-1" d="M424.1,144l77.7,37.3a2.8,2.8,0,0,0,3.6-1.3,2.7,2.7,0,0,0-1.2-3.6l-77.8-37.2a2.6,2.6,0,0,0-3.5,1.2A2.7,2.7,0,0,0,424.1,144Z"/><path class="cls-1" d="M827.4,255.5a60.4,60.4,0,1,1,60.4,60.4A60.5,60.5,0,0,1,827.4,255.5Zm6.8,0A53.6,53.6,0,1,0,887.8,202,53.6,53.6,0,0,0,834.2,255.5Z"/><path class="cls-1" d="M632.1,255.5a60.4,60.4,0,1,1,60.3,60.3A60.4,60.4,0,0,1,632.1,255.5Zm6.8,0A53.6,53.6,0,1,0,692.4,202,53.6,53.6,0,0,0,638.9,255.5Z"/><path class="cls-1" d="M889.1,259.6a3.4,3.4,0,0,0,2.1-.8,3.3,3.3,0,0,0,.5-4.7l-60.9-75.5a3.3,3.3,0,0,0-4.7-.5,3.4,3.4,0,0,0-.6,4.7l61,75.5A3.3,3.3,0,0,0,889.1,259.6Z"/><path class="cls-1" d="M692.4,258.9a3.4,3.4,0,0,0,3.3-2.4L728,148.9c.8-1.6,3.6-7.9,1.5-13a8.9,8.9,0,0,0-.9-1.6c6.2-.3,13.4-.5,20.8-.5a3.5,3.5,0,0,0,3.4-3.4,3.4,3.4,0,0,0-3.4-3.4c-11.7,0-39.6.5-44.6,4.8-1,.8-3.3,2.8-1.8,5.4s4,1.7,6,1.1,8.1-2.6,12.2-1.4a2.6,2.6,0,0,1,2,1.6c.9,2.1-.5,6-1.3,7.5l-.2.3v.3l-32.4,108a3.5,3.5,0,0,0,2.3,4.2Z"/><path class="cls-1" d="M889.1,259.6a3.5,3.5,0,0,0,3.4-3.4,3.4,3.4,0,0,0-3.4-3.4l-90-1.3a3.3,3.3,0,0,0-3.4,3.3,3.2,3.2,0,0,0,3.3,3.4l90,1.4Z"/><path class="cls-1" d="M801,258.2a3.3,3.3,0,0,0,3.2-2.2L842,150.7a3.4,3.4,0,0,0-6.4-2.3L797.8,253.7a3.3,3.3,0,0,0,2.1,4.3A2.2,2.2,0,0,0,801,258.2Z"/><path class="cls-1" d="M832.8,174.1a7.6,7.6,0,0,1-7.3-8h0a7.6,7.6,0,0,1,8-7.3,7.8,7.8,0,0,1,5.3,2.5,7.5,7.5,0,0,1,2,5.5,7.8,7.8,0,0,1-7.7,7.4Zm-.6-7.7h0a1,1,0,0,0,.9,1,1.1,1.1,0,0,0,1-.9,1.5,1.5,0,0,0-.3-.7l-.6-.3h-.1A1,1,0,0,0,832.2,166.4Z"/><path class="cls-1" d="M718.9,159.6a7.8,7.8,0,0,1-3.2-4.9,7.5,7.5,0,0,1,1.2-5.8,7.7,7.7,0,0,1,12.7,8.6,7.9,7.9,0,0,1-4.9,3.3h-1.5A7.5,7.5,0,0,1,718.9,159.6Zm3.6-6.9a1.1,1.1,0,0,0-.2.7.7.7,0,0,0,.4.6.6.6,0,0,0,.7.1.7.7,0,0,0,.6-.4.8.8,0,0,0-.3-1.2l-.5-.2A.7.7,0,0,0,722.5,152.7Z"/><path class="cls-1" d="M852.4,140.3l-27.9,2.3c-11.9.4-10.7,2.4-8.4,3,7.6,2,31.6,4.1,35.4,2.7a7.5,7.5,0,0,0,4.5-4C856.6,142.8,854.7,140.2,852.4,140.3Z"/><path class="cls-1" d="M815.3,148.9c-3.3-.9-4.3-3.1-4.1-4.8.5-3.8,5-4.6,13.1-4.9l27.8-2.3h.2a7.2,7.2,0,0,1,6,3.2,5.7,5.7,0,0,1,.7,5.6,10.2,10.2,0,0,1-6.3,5.7,24,24,0,0,1-7.1.7C836,152.1,820.5,150.3,815.3,148.9Zm21.6-3.9c6.4.4,12,.5,13.4.1a3.9,3.9,0,0,0,2.1-1.4Zm-20.1-2.7Z"/><path class="cls-1" d="M799,258.2a3.5,3.5,0,0,0,2.5-1,3.3,3.3,0,0,0-.1-4.7L720.6,173a3.4,3.4,0,1,0-4.7,4.8l80.8,79.5A3.3,3.3,0,0,0,799,258.2Z"/><path class="cls-1" d="M758.8,142.3l79.9-48a2.9,2.9,0,0,0,1-4,2.8,2.8,0,0,0-3.9-1l-80,48a3,3,0,0,0-1,4A2.8,2.8,0,0,0,758.8,142.3Z"/><path class="cls-1" d="M1143.4,255.5a60.4,60.4,0,1,1,60.4,60.4A60.5,60.5,0,0,1,1143.4,255.5Zm6.8,0a53.6,53.6,0,1,0,53.6-53.5A53.6,53.6,0,0,0,1150.2,255.5Z"/><path class="cls-1" d="M948.1,255.5a60.4,60.4,0,1,1,60.3,60.3A60.4,60.4,0,0,1,948.1,255.5Zm6.8,0a53.6,53.6,0,1,0,53.5-53.5A53.6,53.6,0,0,0,954.9,255.5Z"/><path class="cls-1" d="M1205.1,259.6a3.4,3.4,0,0,0,2.1-.8,3.3,3.3,0,0,0,.5-4.7l-60.9-75.5a3.3,3.3,0,0,0-4.7-.5,3.4,3.4,0,0,0-.6,4.7l61,75.5A3.3,3.3,0,0,0,1205.1,259.6Z"/><path class="cls-1" d="M1008.4,258.9a3.4,3.4,0,0,0,3.3-2.4L1044,148.9c.8-1.6,3.6-7.9,1.5-13a8.9,8.9,0,0,0-.9-1.6c6.2-.3,13.4-.5,20.8-.5a3.5,3.5,0,0,0,3.4-3.4,3.4,3.4,0,0,0-3.4-3.4c-11.7,0-39.6.5-44.6,4.8-1,.8-3.3,2.8-1.8,5.4s4,1.7,6,1.1,8.1-2.6,12.2-1.4a2.6,2.6,0,0,1,2,1.6c.9,2.1-.5,6-1.3,7.5l-.2.3v.3l-32.4,108a3.5,3.5,0,0,0,2.3,4.2Z"/><path class="cls-1" d="M1205.1,259.6a3.5,3.5,0,0,0,3.4-3.4,3.4,3.4,0,0,0-3.4-3.4l-90-1.3a3.3,3.3,0,0,0-3.4,3.3,3.2,3.2,0,0,0,3.3,3.4l90,1.4Z"/><path class="cls-1" d="M1117,258.2a3.3,3.3,0,0,0,3.2-2.2L1158,150.7a3.4,3.4,0,0,0-6.4-2.3l-37.8,105.3a3.3,3.3,0,0,0,2.1,4.3A2.2,2.2,0,0,0,1117,258.2Z"/><path class="cls-1" d="M1148.8,174.1a7.6,7.6,0,0,1-7.3-8h0a7.6,7.6,0,0,1,8-7.3,7.8,7.8,0,0,1,5.3,2.5,7.5,7.5,0,0,1,2,5.5,7.8,7.8,0,0,1-7.7,7.4Zm-.6-7.7h0a1,1,0,0,0,.9,1,1.1,1.1,0,0,0,1-.9,1.5,1.5,0,0,0-.3-.7l-.6-.3h-.1A1,1,0,0,0,1148.2,166.4Z"/><path class="cls-1" d="M1034.9,159.6a7.8,7.8,0,0,1-3.2-4.9,7.5,7.5,0,0,1,1.2-5.8,7.7,7.7,0,0,1,12.7,8.6,7.9,7.9,0,0,1-4.9,3.3h-1.5A7.5,7.5,0,0,1,1034.9,159.6Zm3.6-6.9a1.1,1.1,0,0,0-.2.7.7.7,0,0,0,.4.6.6.6,0,0,0,.7.1.7.7,0,0,0,.6-.4.8.8,0,0,0-.3-1.2l-.5-.2A.7.7,0,0,0,1038.5,152.7Z"/><path class="cls-1" d="M1168.4,140.3l-27.9,2.3c-11.9.4-10.7,2.4-8.4,3,7.6,2,31.6,4.1,35.4,2.7a7.5,7.5,0,0,0,4.5-4C1172.6,142.8,1170.7,140.2,1168.4,140.3Z"/><path class="cls-1" d="M1131.3,148.9c-3.3-.9-4.3-3.1-4.1-4.8.5-3.8,5-4.6,13.1-4.9l27.8-2.3h.2a7.2,7.2,0,0,1,6,3.2,5.7,5.7,0,0,1,.7,5.6,10.2,10.2,0,0,1-6.3,5.7,24,24,0,0,1-7.1.7C1152,152.1,1136.5,150.3,1131.3,148.9Zm21.6-3.9c6.4.4,12,.5,13.4.1a3.9,3.9,0,0,0,2.1-1.4Zm-20.1-2.7Z"/><path class="cls-1" d="M1115,258.2a3.5,3.5,0,0,0,2.5-1,3.3,3.3,0,0,0-.1-4.7L1036.6,173a3.4,3.4,0,1,0-4.7,4.8l80.8,79.5A3.3,3.3,0,0,0,1115,258.2Z"/><path class="cls-1" d="M1059.2,40.3l72.6,30.1a2.5,2.5,0,0,0,3.2-1.3,2.3,2.3,0,0,0-1.3-3.2l-72.6-30.2a2.4,2.4,0,0,0-3.2,1.4A2.5,2.5,0,0,0,1059.2,40.3Z"/></svg>
