<svg id="Layer_1" data-name="Layer 1" xmlns="http://www.w3.org/2000/svg" width="250" height="200" viewBox="0 0 250 200"><defs><style>.cls-1{fill:none;stroke:#000;stroke-linecap:round;stroke-miterlimit:10;stroke-width:5px;}</style></defs><title>Artboard 6</title><path d="M50,68.25a43,43,0,1,1-43,43,43,43,0,0,1,43-43m0-5a48,48,0,1,0,48,48,48,48,0,0,0-48-48Z"/><path d="M200,68.25a43,43,0,1,1-43,43,43,43,0,0,1,43-43m0-5a48,48,0,1,0,48,48,48,48,0,0,0-48-48Z"/><line class="cls-1" x1="50.5" y1="110.75" x2="85.5" y2="15.75"/><line class="cls-1" x1="200.5" y1="110.75" x2="105.5" y2="111.5"/><line class="cls-1" x1="175.5" y1="41.75" x2="200.5" y2="110.75"/><line class="cls-1" x1="125.5" y1="110.75" x2="175.5" y2="41.75"/><line class="cls-1" x1="81.5" y1="14.75" x2="114.5" y2="14.75"/><line class="cls-1" x1="155.5" y1="40.75" x2="183.5" y2="40.75"/><path class="cls-1" d="M69.5,60.5s36,7,36,51"/></svg>
